<svg width="260" height="256" viewBox="0 0 260 256" fill="none" xmlns="http://www.w3.org/2000/svg">
<path fill-rule="evenodd" clip-rule="evenodd" d="M130.235 27.5L173.855 52.625L217.475 77.75L173.855 102.875L130.235 128L86.6148 102.875L42.9949 77.75L86.6148 52.625L130.235 27.5Z" fill="#77E2EF"/>
<path fill-rule="evenodd" clip-rule="evenodd" d="M43.2218 178.186L43.2411 128.033L43.2605 77.881L86.6984 102.94L130.136 128L130.117 178.152L130.098 228.305L86.6597 203.245L43.2218 178.186Z" fill="#5B8AF5"/>
<path fill-rule="evenodd" clip-rule="evenodd" d="M139.221 5.33334L129.985 0L120.748 5.33333L126.748 15.7256L129.985 13.8564L133.222 15.7256L139.221 5.33334ZM111.512 10.6667L117.511 21.059L99.038 31.7256L93.0387 21.3333L111.512 10.6667ZM83.8022 26.6667L89.8015 37.059L71.3284 47.7256L65.3291 37.3333L83.8022 26.6667ZM56.0926 42.6667L37.6195 53.3333L43.6188 63.7256L62.0919 53.059L56.0926 42.6667ZM19.1465 181.333H31.1451V185.072L34.3823 186.941L28.383 197.333L19.1465 192V181.333ZM37.6195 202.667L56.0926 213.333L62.0919 202.941L43.6188 192.274L37.6195 202.667ZM65.3291 218.667L71.3284 208.274L89.8015 218.941L83.8022 229.333L65.3291 218.667ZM93.0387 234.667L111.512 245.333L117.511 234.941L99.038 224.274L93.0387 234.667ZM120.748 250.667L126.748 240.274L129.985 242.144L133.222 240.274L139.221 250.667L129.985 256L120.748 250.667ZM148.458 245.333L166.931 234.667L160.932 224.274L142.459 234.941L148.458 245.333ZM176.167 229.333L194.641 218.667L188.641 208.274L170.168 218.941L176.167 229.333ZM203.877 213.333L222.35 202.667L216.351 192.274L197.878 202.941L203.877 213.333ZM240.823 74.6667H228.825V70.9282L225.587 69.059L231.587 58.6667L240.823 64V74.6667ZM222.35 53.3333L216.351 63.7256L197.878 53.059L203.877 42.6667L222.35 53.3333ZM194.641 37.3333L188.641 47.7256L170.168 37.059L176.167 26.6667L194.641 37.3333ZM166.931 21.3333L160.932 31.7256L142.459 21.059L148.458 10.6667L166.931 21.3333ZM240.823 85.3333H228.825V106.667H240.823V85.3333ZM240.823 117.333H228.825V138.667H240.823V117.333ZM240.823 149.333H228.825V170.667H240.823V149.333ZM240.823 181.333H228.825V185.072L225.587 186.941L231.587 197.333L240.823 192V181.333ZM19.1465 170.667H31.1451V149.333H19.1465V170.667ZM19.1465 138.667H31.1451V117.333H19.1465V138.667ZM19.1465 106.667H31.1451V85.3333H19.1465V106.667ZM19.1465 74.6667H31.1451V70.9282L34.3823 69.059L28.383 58.6667L19.1465 64V74.6667Z" fill="#e4e4e7"/>
</svg>
