<svg width="1124" height="256" viewBox="0 0 1124 256" fill="none" xmlns="http://www.w3.org/2000/svg">
<path d="M1036.9 137.944C1036.9 107.284 1054.54 91.996 1081.5 91.996C1108.29 91.996 1124 107.704 1124 134.752V143.992H1060.5C1060.84 157.18 1068.06 166.588 1081.42 166.588C1094.52 166.588 1099.56 159.448 1100.73 153.736H1122.24V156.256C1119.72 168.352 1109.05 183.976 1081.75 183.976C1054.54 183.976 1036.9 168.604 1036.9 137.944ZM1060.76 128.368H1100.82C1100.65 117.364 1094.69 109.132 1081.25 109.132C1068.15 109.132 1061.76 117.7 1060.76 128.368Z" fill="white"/>
<path d="M972.341 110.476V94.0119H988.299V70.7439H1012.74V94.0119H1030.97V110.476H1012.74V157.936C1012.74 162.22 1015.09 164.656 1019.54 164.656H1030.55V181.96H1012.99C997.622 181.96 988.299 173.812 988.299 158.692V110.476H972.341Z" fill="white"/>
<path d="M911.497 120.472H889.155V117.952C891.087 102.076 905.869 91.996 928.547 91.996C951.308 91.996 966.594 102.076 966.594 125.512V160.288C966.594 168.856 967.098 174.736 969.114 179.44V181.96H961.388L944.589 172.384H942.909C938.626 178.096 931.738 183.472 916.872 183.472C898.142 183.472 884.116 173.224 884.116 156.508C884.116 138.952 897.638 131.476 914.604 129.712L934.594 127.78C940.473 127.192 943.413 125.344 943.413 120.388C943.413 112.996 937.87 108.964 928.043 108.964C918.468 108.964 911.833 112.912 911.497 120.472ZM908.305 155.332C908.305 162.388 913.764 166.756 922.919 166.756C932.158 166.756 943.245 161.548 943.245 145.504V140.296H941.565C938.878 141.724 935.854 142.48 930.479 143.068L920.988 144.076C913.68 144.832 908.305 147.94 908.305 155.332Z" fill="white"/>
<path d="M847.043 181.96V61H871.736V181.96H847.043Z" fill="white"/>
<path d="M742.111 215.56V94.0119H745.798L765.796 105.008H767.476C771.339 98.7079 779.402 92.3319 794.1 92.3319C816.106 92.3319 834.248 106.864 834.248 138.028C834.248 169.192 816.106 183.724 794.1 183.724C779.402 183.724 771.927 178.18 768.483 173.392H766.804V215.56H742.111ZM765.796 138.028C765.796 156.088 774.363 165.412 787.465 165.412C800.652 165.412 809.219 156.088 809.219 138.028C809.219 119.968 800.652 110.56 787.465 110.56C774.363 110.56 765.796 119.968 765.796 138.028Z" fill="white"/>
<path d="M677.04 181.96V94.012H680.728L700.725 105.368H702.405C705.933 95.792 713.576 91.156 731.382 93.088V113.752C714.08 111.316 701.733 115.936 701.733 137.188V181.96H677.04Z" fill="white"/>
<path d="M577.09 137.944C577.09 107.284 594.728 91.996 621.689 91.996C648.482 91.996 664.188 107.704 664.188 134.752V143.992H600.692C601.028 157.18 608.251 166.588 621.605 166.588C634.708 166.588 639.747 159.448 640.923 153.736H662.424V156.256C659.905 168.352 649.238 183.976 621.941 183.976C594.728 183.976 577.09 168.604 577.09 137.944ZM600.944 128.368H641.007C640.839 117.364 634.876 109.132 621.437 109.132C608.335 109.132 601.952 117.7 600.944 128.368Z" fill="white"/>
<path d="M539.682 181.96V61H564.375V181.96H539.682Z" fill="white"/>
<path d="M497.658 81.832V61L522.519 75V81.832H497.658ZM497.742 181.96V94.012H522.519V181.96H497.742Z" fill="white"/>
<path d="M390.41 138.028C390.41 107.62 410.4 91.996 437.613 91.996C464.825 91.996 484.899 107.62 484.899 138.028C484.899 168.352 464.825 183.976 437.613 183.976C410.4 183.976 390.41 168.352 390.41 138.028ZM415.439 138.028C415.439 156.34 424.174 166 437.613 166C451.135 166 459.87 156.34 459.87 138.028C459.87 119.716 451.135 110.056 437.613 110.056C424.174 110.056 415.439 119.716 415.439 138.028Z" fill="white"/>
<path d="M283.967 181.96V61H341.416C363.841 61 379.968 71.248 379.968 91.408C379.968 111.064 366.445 116.692 359.81 118.372V120.052C367.705 121.648 383.579 128.116 383.579 148.612C383.579 170.368 366.865 181.96 343.18 181.96H283.967ZM336.041 79.648H309.836V111.232H336.041C347.043 111.232 354.855 106.276 354.771 95.44C354.771 84.604 346.959 79.648 336.041 79.648ZM338.14 129.88H309.836V163.312H338.14C349.563 163.312 358.214 158.272 358.214 146.764C358.214 135.172 349.563 129.88 338.14 129.88Z" fill="white"/>
<path d="M821.932 214.863V219.704H826.723C826.934 219.704 827.177 219.66 827.45 219.571C827.724 219.483 827.978 219.345 828.214 219.155C828.463 218.966 828.674 218.714 828.848 218.399C829.022 218.084 829.109 217.7 829.109 217.246C829.109 216.868 829.041 216.534 828.904 216.244C828.78 215.941 828.606 215.689 828.382 215.487C828.171 215.286 827.916 215.134 827.618 215.034C827.332 214.92 827.028 214.863 826.705 214.863H821.932ZM825.978 205.353C825.978 205.353 824.629 205.353 821.932 205.353V209.664H825.959C826.17 209.664 826.388 209.62 826.611 209.532C826.835 209.431 827.034 209.292 827.208 209.116C827.394 208.926 827.543 208.7 827.655 208.435C827.78 208.17 827.842 207.868 827.842 207.527C827.842 207.2 827.786 206.903 827.674 206.639C827.562 206.374 827.413 206.147 827.227 205.958C827.053 205.769 826.854 205.624 826.63 205.523C826.419 205.41 826.201 205.353 825.978 205.353ZM827.45 225.376H814.905V199.662H826.388C827.717 199.662 828.91 199.819 829.967 200.134C831.023 200.45 831.924 200.916 832.67 201.534C833.415 202.151 833.987 202.914 834.385 203.821C834.782 204.729 834.981 205.782 834.981 206.979C834.981 207.496 834.894 208.006 834.72 208.511C834.559 209.015 834.341 209.481 834.068 209.91C833.794 210.326 833.477 210.697 833.117 211.025C832.769 211.34 832.409 211.574 832.036 211.725C832.608 211.952 833.154 212.261 833.676 212.651C834.198 213.029 834.658 213.471 835.056 213.975C835.453 214.466 835.77 215.015 836.006 215.62C836.243 216.225 836.361 216.868 836.361 217.548C836.361 219.011 836.093 220.239 835.559 221.235C835.037 222.231 834.354 223.038 833.509 223.655C832.663 224.273 831.707 224.714 830.638 224.979C829.582 225.244 828.519 225.376 827.45 225.376Z" fill="white"/>
<path d="M852.793 199.662H860.977L851.395 215.676L851.414 225.376H844.386V215.714L834.86 199.662H842.988L847.872 209.399H847.928L852.793 199.662Z" fill="white"/>
<path d="M889.424 216.357L889.443 211.366H902.566C902.678 213.571 902.43 215.576 901.821 217.378C901.224 219.168 900.342 220.706 899.174 221.992C898.018 223.265 896.626 224.254 894.998 224.96C893.37 225.653 891.593 226 889.667 226C887.728 226 885.908 225.647 884.205 224.941C882.515 224.235 881.036 223.271 879.768 222.048C878.513 220.826 877.519 219.395 876.786 217.756C876.053 216.105 875.686 214.347 875.686 212.481C875.686 210.603 876.053 208.851 876.786 207.225C877.519 205.586 878.513 204.155 879.768 202.933C881.036 201.71 882.515 200.752 884.205 200.059C885.908 199.353 887.728 199 889.667 199C891.618 199 893.439 199.353 895.129 200.059C896.831 200.765 898.335 201.754 899.64 203.027L895.073 207.66C894.464 206.828 893.693 206.166 892.761 205.674C891.829 205.183 890.798 204.937 889.667 204.937C888.697 204.937 887.79 205.132 886.945 205.523C886.1 205.901 885.361 206.431 884.727 207.111C884.106 207.779 883.608 208.574 883.236 209.494C882.875 210.414 882.695 211.416 882.695 212.5C882.695 213.571 882.875 214.574 883.236 215.506C883.608 216.426 884.106 217.227 884.727 217.908C885.361 218.576 886.1 219.105 886.945 219.496C887.79 219.874 888.697 220.063 889.667 220.063C891.419 220.063 892.767 219.735 893.712 219.08C894.656 218.412 895.284 217.504 895.595 216.357C895.905 215.21 889.424 216.357 889.424 216.357Z" fill="white"/>
<path d="M913.295 211.479H917.228C917.601 211.479 917.955 211.41 918.291 211.271C918.626 211.132 918.918 210.937 919.167 210.685C919.415 210.433 919.608 210.13 919.745 209.777C919.894 209.412 919.968 209.008 919.968 208.567C919.968 208.151 919.894 207.761 919.745 207.395C919.608 207.029 919.415 206.714 919.167 206.45C918.918 206.185 918.626 205.977 918.291 205.826C917.967 205.674 917.619 205.599 917.247 205.599H913.295V211.479ZM927.63 225.376H919.595L915.643 217.416H913.295V225.376H906.267V199.662H917.545C918.924 199.662 920.192 199.882 921.348 200.324C922.503 200.752 923.498 201.357 924.33 202.139C925.175 202.92 925.828 203.859 926.288 204.956C926.76 206.04 926.996 207.244 926.996 208.567C926.996 210.37 926.592 211.933 925.784 213.256C924.989 214.567 923.901 215.582 922.522 216.3L927.63 225.376Z" fill="white"/>
<path d="M945.964 215.487C945.964 215.487 945.964 210.212 945.964 199.662H952.991V215.468C952.991 216.981 952.724 218.387 952.19 219.685C951.668 220.971 950.91 222.08 949.915 223.013C948.934 223.945 947.734 224.676 946.318 225.206C944.913 225.735 943.335 226 941.583 226C939.967 226 938.464 225.761 937.072 225.282C935.68 224.79 934.468 224.09 933.437 223.183C932.418 222.275 931.616 221.172 931.032 219.874C930.448 218.563 930.156 217.095 930.156 215.468V199.662H937.165V215.506C937.165 216.174 937.258 216.792 937.445 217.359C937.631 217.926 937.911 218.418 938.283 218.834C938.656 219.237 939.116 219.553 939.663 219.779C940.222 220.006 940.862 220.12 941.583 220.12C942.291 220.12 942.919 220.006 943.466 219.779C944.012 219.553 944.466 219.237 944.826 218.834C945.199 218.418 945.479 217.926 945.665 217.359C945.864 216.792 945.964 216.168 945.964 215.487Z" fill="white"/>
<path d="M980.888 199.662V225.376H974.792L964.167 211.536V225.376H957.139V199.662H963.309L973.879 213.445V199.662H980.888Z" fill="white"/>
<path d="M990.349 225.376V205.599H983.656V199.662H1004.01V205.599H997.339V225.376H990.349Z" fill="white"/>
<path d="M1029.11 199.7L1032.65 215.412H1032.72L1037.2 199.643H1044.62L1036.13 225.376H1029.4L1025.41 211.8L1021.41 225.376H1014.68L1006.2 199.643H1013.62L1018.11 215.412H1018.2L1021.71 199.7H1029.11Z" fill="white"/>
<path d="M1044.23 212.481C1044.23 210.603 1044.6 208.851 1045.33 207.225C1046.07 205.586 1047.06 204.155 1048.32 202.933C1049.58 201.71 1051.06 200.752 1052.75 200.059C1054.45 199.353 1056.28 199 1058.21 199C1060.14 199 1061.95 199.353 1063.64 200.059C1065.34 200.752 1066.83 201.71 1068.09 202.933C1069.36 204.155 1070.36 205.586 1071.1 207.225C1071.83 208.851 1072.2 210.603 1072.2 212.481C1072.2 214.347 1071.83 216.105 1071.1 217.756C1070.36 219.395 1069.36 220.826 1068.09 222.048C1066.83 223.271 1065.34 224.235 1063.64 224.941C1061.95 225.647 1060.14 226 1058.21 226C1056.28 226 1054.45 225.647 1052.75 224.941C1051.06 224.235 1049.58 223.271 1048.32 222.048C1047.06 220.826 1046.07 219.395 1045.33 217.756C1044.6 216.105 1044.23 214.347 1044.23 212.481ZM1051.24 212.5C1051.24 213.571 1051.42 214.574 1051.78 215.506C1052.16 216.426 1052.65 217.227 1053.27 217.908C1053.91 218.576 1054.65 219.105 1055.49 219.496C1056.34 219.874 1057.24 220.063 1058.21 220.063C1059.18 220.063 1060.09 219.874 1060.94 219.496C1061.79 219.105 1062.53 218.576 1063.15 217.908C1063.79 217.227 1064.29 216.426 1064.65 215.506C1065.01 214.574 1065.19 213.571 1065.19 212.5C1065.19 211.416 1065.01 210.414 1064.65 209.494C1064.29 208.574 1063.79 207.779 1063.15 207.111C1062.53 206.431 1061.79 205.901 1060.94 205.523C1060.09 205.132 1059.18 204.937 1058.21 204.937C1057.24 204.937 1056.34 205.132 1055.49 205.523C1054.65 205.901 1053.91 206.431 1053.27 207.111C1052.65 207.779 1052.16 208.574 1051.78 209.494C1051.42 210.414 1051.24 211.416 1051.24 212.5Z" fill="white"/>
<path d="M1082.85 211.479H1086.78C1087.15 211.479 1087.51 211.41 1087.84 211.271C1088.18 211.132 1088.47 210.937 1088.72 210.685C1088.97 210.433 1089.16 210.13 1089.3 209.777C1089.45 209.412 1089.52 209.008 1089.52 208.567C1089.52 208.151 1089.45 207.761 1089.3 207.395C1089.16 207.029 1088.97 206.714 1088.72 206.45C1088.47 206.185 1088.18 205.977 1087.84 205.826C1087.52 205.674 1087.17 205.599 1086.8 205.599H1082.85V211.479ZM1097.18 225.376H1089.15L1085.2 217.416H1082.85V225.376H1075.82V199.662H1087.1C1088.48 199.662 1089.75 199.882 1090.9 200.324C1092.06 200.752 1093.05 201.357 1093.88 202.139C1094.73 202.92 1095.38 203.859 1095.84 204.956C1096.31 206.04 1096.55 207.244 1096.55 208.567C1096.55 210.37 1096.15 211.933 1095.34 213.256C1094.54 214.567 1093.46 215.582 1092.08 216.3L1097.18 225.376Z" fill="white"/>
<path d="M1107 199.662V211.158L1115.42 199.662H1123.57L1114.81 211.139L1123.87 225.376H1115.59L1110.22 216.244L1107 220.555V225.376H1099.97V199.662H1107Z" fill="white"/>
<path fill-rule="evenodd" clip-rule="evenodd" d="M130.235 27.5L173.855 52.625L217.475 77.75L173.855 102.875L130.235 128L86.6148 102.875L42.9949 77.75L86.6148 52.625L130.235 27.5Z" fill="#77E2EF"/>
<path fill-rule="evenodd" clip-rule="evenodd" d="M43.2218 178.186L43.2411 128.033L43.2605 77.881L86.6984 102.94L130.136 128L130.117 178.152L130.098 228.305L86.6597 203.245L43.2218 178.186Z" fill="#1B46DD"/>
<path fill-rule="evenodd" clip-rule="evenodd" d="M139.221 5.33334L129.985 0L120.748 5.33333L126.748 15.7256L129.985 13.8564L133.222 15.7256L139.221 5.33334ZM111.512 10.6667L117.511 21.059L99.038 31.7256L93.0387 21.3333L111.512 10.6667ZM83.8022 26.6667L89.8015 37.059L71.3284 47.7256L65.3291 37.3333L83.8022 26.6667ZM56.0926 42.6667L37.6195 53.3333L43.6188 63.7256L62.0919 53.059L56.0926 42.6667ZM19.1465 181.333H31.1451V185.072L34.3823 186.941L28.383 197.333L19.1465 192V181.333ZM37.6195 202.667L56.0926 213.333L62.0919 202.941L43.6188 192.274L37.6195 202.667ZM65.3291 218.667L71.3284 208.274L89.8015 218.941L83.8022 229.333L65.3291 218.667ZM93.0387 234.667L111.512 245.333L117.511 234.941L99.038 224.274L93.0387 234.667ZM120.748 250.667L126.748 240.274L129.985 242.144L133.222 240.274L139.221 250.667L129.985 256L120.748 250.667ZM148.458 245.333L166.931 234.667L160.932 224.274L142.459 234.941L148.458 245.333ZM176.167 229.333L194.641 218.667L188.641 208.274L170.168 218.941L176.167 229.333ZM203.877 213.333L222.35 202.667L216.351 192.274L197.878 202.941L203.877 213.333ZM240.823 74.6667H228.825V70.9282L225.587 69.059L231.587 58.6667L240.823 64V74.6667ZM222.35 53.3333L216.351 63.7256L197.878 53.059L203.877 42.6667L222.35 53.3333ZM194.641 37.3333L188.641 47.7256L170.168 37.059L176.167 26.6667L194.641 37.3333ZM166.931 21.3333L160.932 31.7256L142.459 21.059L148.458 10.6667L166.931 21.3333ZM240.823 85.3333H228.825V106.667H240.823V85.3333ZM240.823 117.333H228.825V138.667H240.823V117.333ZM240.823 149.333H228.825V170.667H240.823V149.333ZM240.823 181.333H228.825V185.072L225.587 186.941L231.587 197.333L240.823 192V181.333ZM19.1465 170.667H31.1451V149.333H19.1465V170.667ZM19.1465 138.667H31.1451V117.333H19.1465V138.667ZM19.1465 106.667H31.1451V85.3333H19.1465V106.667ZM19.1465 74.6667H31.1451V70.9282L34.3823 69.059L28.383 58.6667L19.1465 64V74.6667Z" fill="white"/>
</svg>
